<?xml version="1.0" standalone="no"?>
<!DOCTYPE svg PUBLIC "-//W3C//DTD SVG 20010904//EN"
 "http://www.w3.org/TR/2001/REC-SVG-20010904/DTD/svg10.dtd">
<svg version="1.0" xmlns="http://www.w3.org/2000/svg"
 width="260.000000pt" height="260.000000pt" viewBox="0 0 260.000000 260.000000"
 preserveAspectRatio="xMidYMid meet">
<metadata>
Created by potrace 1.11, written by Peter Selinger 2001-2013
</metadata>
<g transform="translate(0.000000,260.000000) scale(0.100000,-0.100000)"
fill="#000000" stroke="none">
<path d="M1195 2474 c-95 -78 -152 -132 -260 -245 -79 -83 -235 -271 -235
-285 0 -3 -15 -27 -34 -53 -18 -25 -43 -64 -55 -86 -12 -22 -26 -47 -31 -55
-24 -36 -95 -203 -126 -295 -41 -124 -61 -218 -69 -321 l-5 -79 127 -62 c202
-97 553 -317 662 -416 17 -15 33 -27 35 -27 3 0 0 15 -5 32 -5 18 -7 96 -5
173 7 223 40 304 233 572 58 82 129 180 157 218 75 105 132 224 147 306 17 94
1 212 -37 278 -35 60 -371 393 -413 408 -3 1 -42 -27 -86 -63z"/>
<path d="M1775 1970 c12 -20 6 -130 -11 -192 -37 -136 -69 -193 -229 -408
-158 -212 -203 -286 -241 -400 -21 -65 -19 -54 -28 -110 -10 -62 -10 -130 -2
-226 26 -313 217 -535 390 -454 129 61 205 272 200 555 l-2 120 19 -40 c11
-22 29 -74 41 -115 43 -157 6 -315 -118 -504 l-26 -39 62 49 c53 41 94 85 181
192 49 60 130 258 146 360 14 86 8 331 -10 422 -20 97 -68 257 -97 325 -11 25
-19 46 -19 48 3 23 -240 427 -257 427 -3 0 -2 -5 1 -10z"/>
<path d="M396 955 c26 -270 170 -563 349 -709 111 -90 258 -154 401 -174 71
-10 246 -13 303 -4 l33 5 -35 36 c-69 72 -150 187 -190 272 -39 80 -47 90
-122 146 -253 188 -562 382 -716 449 -26 12 -27 11 -23 -21z"/>
</g>
</svg>
